<svg width="64" height="21" viewBox="0 0 64 21" fill="none" xmlns="http://www.w3.org/2000/svg">
<path d="M10.4502 21H0.75293C0.674805 21 0.635742 20.9512 0.635742 20.8535L0.665039 0.243164C0.665039 0.165039 0.704102 0.125977 0.782227 0.125977H10.4209C10.499 0.125977 10.5381 0.174805 10.5381 0.272461V3.62695C10.5381 3.70508 10.499 3.74414 10.4209 3.74414H4.26855V8.43164H10.4209C10.499 8.43164 10.5381 8.4707 10.5381 8.54883L10.5674 11.9473C10.5674 12.0254 10.5283 12.0645 10.4502 12.0645H4.26855V17.3086H10.4502C10.5283 17.3086 10.5674 17.3574 10.5674 17.4551V20.8828C10.5674 20.9609 10.5283 21 10.4502 21ZM20.2354 21H16.6025C16.5146 21 16.4658 20.9512 16.4561 20.8535L12.3105 0.243164C12.291 0.165039 12.3301 0.125977 12.4277 0.125977H15.8262C15.9043 0.125977 15.9531 0.165039 15.9727 0.243164L18.4336 13.9834L20.8359 0.243164C20.8555 0.165039 20.9043 0.125977 20.9824 0.125977H24.3369C24.4443 0.125977 24.4834 0.165039 24.4541 0.243164L20.3818 20.8535C20.3721 20.9512 20.3232 21 20.2354 21ZM36.0264 21H26.3291C26.251 21 26.2119 20.9512 26.2119 20.8535L26.2412 0.243164C26.2412 0.165039 26.2803 0.125977 26.3584 0.125977H35.9971C36.0752 0.125977 36.1143 0.174805 36.1143 0.272461V3.62695C36.1143 3.70508 36.0752 3.74414 35.9971 3.74414H29.8447V8.43164H35.9971C36.0752 8.43164 36.1143 8.4707 36.1143 8.54883L36.1436 11.9473C36.1436 12.0254 36.1045 12.0645 36.0264 12.0645H29.8447V17.3086H36.0264C36.1045 17.3086 36.1436 17.3574 36.1436 17.4551V20.8828C36.1436 20.9609 36.1045 21 36.0264 21ZM42.0762 21H39.0732C38.917 21 38.8389 20.9316 38.8389 20.7949L38.8096 0.360352C38.8096 0.204102 38.8877 0.125977 39.0439 0.125977H41.7539L46.8223 11.9473L46.6758 0.360352C46.6758 0.204102 46.7637 0.125977 46.9395 0.125977H49.9131C50.0303 0.125977 50.0889 0.204102 50.0889 0.360352L50.1182 20.8242C50.1182 20.9414 50.0693 21 49.9717 21H47.335L42.1348 9.95508L42.3545 20.7656C42.3545 20.9219 42.2617 21 42.0762 21ZM59.127 21H55.7432C55.6553 21 55.6113 20.9512 55.6113 20.8535V3.74414H51.7148C51.6172 3.74414 51.5684 3.69531 51.5684 3.59766L51.5977 0.243164C51.5977 0.165039 51.6367 0.125977 51.7148 0.125977H63.1113C63.2188 0.125977 63.2725 0.165039 63.2725 0.243164V3.59766C63.2725 3.69531 63.2334 3.74414 63.1553 3.74414H59.2148L59.2441 20.8535C59.2441 20.9512 59.2051 21 59.127 21Z" fill="url(#paint0_linear_4420_3)"/>
<defs>
<linearGradient id="paint0_linear_4420_3" x1="64" y1="11.3313" x2="-1.00134" y2="11.1267" gradientUnits="userSpaceOnUse">
<stop/>
<stop offset="1" stop-color="#2F2F2F"/>
</linearGradient>
</defs>
</svg>
