<svg width="124" height="41" viewBox="0 0 124 41" fill="none" xmlns="http://www.w3.org/2000/svg">
<path d="M51.736 29.216C51.224 29.216 50.8 29.104 50.464 28.88C50.144 28.64 49.88 28.28 49.672 27.8L43.624 14.36C43.4 13.88 43.336 13.456 43.432 13.088C43.528 12.704 43.728 12.408 44.032 12.2C44.336 11.976 44.704 11.864 45.136 11.864C45.68 11.864 46.096 11.992 46.384 12.248C46.672 12.488 46.912 12.848 47.104 13.328L52.408 25.592H51.208L56.512 13.304C56.72 12.824 56.968 12.464 57.256 12.224C57.544 11.984 57.944 11.864 58.456 11.864C58.888 11.864 59.24 11.976 59.512 12.2C59.8 12.408 59.976 12.704 60.04 13.088C60.12 13.456 60.056 13.88 59.848 14.36L53.8 27.8C53.576 28.28 53.304 28.64 52.984 28.88C52.68 29.104 52.264 29.216 51.736 29.216ZM64.0855 29C63.4615 29 62.9815 28.832 62.6455 28.496C62.3095 28.16 62.1415 27.68 62.1415 27.056V14.024C62.1415 13.4 62.3095 12.92 62.6455 12.584C62.9815 12.248 63.4615 12.08 64.0855 12.08H72.4615C72.9415 12.08 73.3015 12.208 73.5415 12.464C73.7975 12.704 73.9255 13.056 73.9255 13.52C73.9255 14 73.7975 14.368 73.5415 14.624C73.3015 14.864 72.9415 14.984 72.4615 14.984H65.6935V18.944H71.9095C72.4055 18.944 72.7735 19.072 73.0135 19.328C73.2695 19.568 73.3975 19.928 73.3975 20.408C73.3975 20.888 73.2695 21.256 73.0135 21.512C72.7735 21.752 72.4055 21.872 71.9095 21.872H65.6935V26.096H72.4615C72.9415 26.096 73.3015 26.224 73.5415 26.48C73.7975 26.72 73.9255 27.072 73.9255 27.536C73.9255 28.016 73.7975 28.384 73.5415 28.64C73.3015 28.88 72.9415 29 72.4615 29H64.0855ZM78.4008 29.216C77.8408 29.216 77.4088 29.064 77.1048 28.76C76.8168 28.44 76.6728 27.992 76.6728 27.416V13.736C76.6728 13.128 76.8168 12.664 77.1048 12.344C77.4088 12.024 77.8088 11.864 78.3048 11.864C78.7368 11.864 79.0648 11.952 79.2888 12.128C79.5288 12.288 79.8008 12.56 80.1048 12.944L88.5287 23.672H87.8808V13.64C87.8808 13.08 88.0248 12.648 88.3128 12.344C88.6168 12.024 89.0488 11.864 89.6088 11.864C90.1688 11.864 90.5928 12.024 90.8808 12.344C91.1848 12.648 91.3368 13.08 91.3368 13.64V27.488C91.3368 28.016 91.2008 28.44 90.9288 28.76C90.6568 29.064 90.2888 29.216 89.8248 29.216C89.3768 29.216 89.0168 29.128 88.7448 28.952C88.4888 28.776 88.2088 28.496 87.9048 28.112L79.5048 17.384H80.1288V27.416C80.1288 27.992 79.9848 28.44 79.6968 28.76C79.4088 29.064 78.9768 29.216 78.4008 29.216ZM100.647 29.216C100.039 29.216 99.5751 29.048 99.2551 28.712C98.9351 28.376 98.7751 27.904 98.7751 27.296V15.152H94.5271C94.0311 15.152 93.6471 15.016 93.3751 14.744C93.1031 14.472 92.9671 14.096 92.9671 13.616C92.9671 13.12 93.1031 12.744 93.3751 12.488C93.6471 12.216 94.0311 12.08 94.5271 12.08H106.743C107.239 12.08 107.623 12.216 107.895 12.488C108.167 12.744 108.303 13.12 108.303 13.616C108.303 14.096 108.167 14.472 107.895 14.744C107.623 15.016 107.239 15.152 106.743 15.152H102.495V27.296C102.495 27.904 102.335 28.376 102.015 28.712C101.711 29.048 101.255 29.216 100.647 29.216ZM115.416 29.264C114.744 29.264 114.056 29.208 113.352 29.096C112.664 29 112 28.856 111.36 28.664C110.736 28.472 110.176 28.232 109.68 27.944C109.328 27.752 109.08 27.504 108.936 27.2C108.792 26.88 108.736 26.56 108.768 26.24C108.816 25.92 108.936 25.64 109.128 25.4C109.336 25.144 109.592 24.984 109.896 24.92C110.216 24.84 110.568 24.896 110.952 25.088C111.608 25.456 112.32 25.728 113.088 25.904C113.872 26.08 114.648 26.168 115.416 26.168C116.584 26.168 117.416 25.992 117.912 25.64C118.408 25.272 118.656 24.816 118.656 24.272C118.656 23.808 118.48 23.44 118.128 23.168C117.776 22.896 117.16 22.664 116.28 22.472L113.568 21.896C112.032 21.576 110.888 21.032 110.136 20.264C109.4 19.48 109.032 18.456 109.032 17.192C109.032 16.392 109.2 15.664 109.536 15.008C109.872 14.352 110.344 13.784 110.952 13.304C111.56 12.824 112.28 12.456 113.112 12.2C113.96 11.944 114.888 11.816 115.896 11.816C116.792 11.816 117.672 11.928 118.536 12.152C119.4 12.36 120.16 12.672 120.816 13.088C121.136 13.28 121.352 13.528 121.464 13.832C121.592 14.12 121.632 14.416 121.584 14.72C121.552 15.008 121.432 15.264 121.224 15.488C121.032 15.712 120.784 15.856 120.48 15.92C120.176 15.984 119.808 15.912 119.376 15.704C118.848 15.432 118.288 15.232 117.696 15.104C117.104 14.976 116.496 14.912 115.872 14.912C115.2 14.912 114.624 15 114.144 15.176C113.68 15.352 113.32 15.6 113.064 15.92C112.824 16.24 112.704 16.608 112.704 17.024C112.704 17.488 112.872 17.864 113.208 18.152C113.544 18.44 114.128 18.672 114.96 18.848L117.672 19.424C119.24 19.76 120.408 20.304 121.176 21.056C121.944 21.792 122.328 22.768 122.328 23.984C122.328 24.784 122.168 25.512 121.848 26.168C121.528 26.808 121.064 27.36 120.456 27.824C119.848 28.288 119.12 28.648 118.272 28.904C117.424 29.144 116.472 29.264 115.416 29.264Z" fill="black"/>
<path d="M19.7552 0.00204152L20.4167 0C36.2437 0 40.8333 4.58967 40.8333 20.4167L40.8231 21.7274C40.5659 36.4989 35.7986 40.8333 20.4167 40.8333L19.1059 40.8231C4.54883 40.5679 0.128625 35.9333 0 21.0802V20.4167C0 4.81221 4.46104 0.130667 19.7552 0.00204152ZM24.5 10.2083H16.3333C15.7918 10.2083 15.2725 10.4234 14.8897 10.8063C14.5068 11.1892 14.2917 11.7085 14.2917 12.25V28.5833C14.2917 29.1248 14.5068 29.6441 14.8897 30.027C15.2725 30.4099 15.7918 30.625 16.3333 30.625H24.5C25.0415 30.625 25.5608 30.4099 25.9437 30.027C26.3266 29.6441 26.5417 29.1248 26.5417 28.5833L26.5274 28.3445C26.4689 27.8478 26.2301 27.3899 25.8564 27.0576C25.4827 26.7253 25.0001 26.5417 24.5 26.5417H18.375V22.4583H21.4375C21.9376 22.4583 22.4202 22.2747 22.7939 21.9424C23.1676 21.6101 23.4064 21.1522 23.4649 20.6555L23.4792 20.4167C23.4792 19.8752 23.2641 19.3559 22.8812 18.973C22.4983 18.5901 21.979 18.375 21.4375 18.375H18.375V14.2917H24.5C25.0415 14.2917 25.5608 14.0766 25.9437 13.6937C26.3266 13.3108 26.5417 12.7915 26.5417 12.25C26.5417 11.7085 26.3266 11.1892 25.9437 10.8063C25.5608 10.4234 25.0415 10.2083 24.5 10.2083Z" fill="#040404" fill-opacity="0.77"/>
</svg>
